STARTFONT 2.1
FONT -sun-helmetcondensed-bold-r-semicondensed--10-100-75-75-p-47-adobe-fontspecific
SIZE 10 75 75
FONTBOUNDINGBOX 12 12 -2 -2

STARTPROPERTIES 28
FOUNDRY "sun"
FAMILY_NAME "helmetcondensed"
WEIGHT_NAME "bold"
SLANT "r"
SETWIDTH_NAME "semicondensed"
ADD_STYLE_NAME ""
PIXEL_SIZE 10
POINT_SIZE 100
RESOLUTION_X 75
RESOLUTION_Y 75
SPACING "p"
AVERAGE_WIDTH 47
CHARSET_REGISTRY "adobe"
CHARSET_ENCODING "fontspecific"
COPYRIGHT "© 1999 Sun Microsystems, Inc."
RAW_PIXELSIZE 1000
RAW_POINTSIZE 964
RAW_ASCENT 900
RAW_DESCENT 196
RAW_AVERAGE_WIDTH 4548
FACE_NAME "HelmetCondensedBoldnsedB5"
_XMBDFED_INFO "Edited with xmbdfed 2.4."
WEIGHT 10
X_HEIGHT -1
QUAD_WIDTH 5
DEFAULT_CHAR 4
FONT_DESCENT 2
FONT_ASCENT 10
ENDPROPERTIES

CHARS 210

STARTCHAR char32
ENCODING 32
SWIDTH 25 0
DWIDTH 3 0
BBX 0 0 0 0
BITMAP
ENDCHAR

STARTCHAR char33
ENCODING 33
SWIDTH 17 0
DWIDTH 2 0
BBX 2 7 0 0
BITMAP
C0
C0
C0
C0
C0
00
40
ENDCHAR

STARTCHAR char34
ENCODING 34
SWIDTH 25 0
DWIDTH 3 0
BBX 4 2 0 5
BITMAP
F0
F0
ENDCHAR

STARTCHAR char35
ENCODING 35
SWIDTH 51 0
DWIDTH 6 0
BBX 5 8 0 0
BITMAP
28
28
28
78
50
F8
50
50
ENDCHAR

STARTCHAR char36
ENCODING 36
SWIDTH 43 0
DWIDTH 5 0
BBX 6 9 -1 -1
BITMAP
30
FC
DC
F0
18
1C
DC
78
10
ENDCHAR

STARTCHAR char37
ENCODING 37
SWIDTH 68 0
DWIDTH 8 0
BBX 9 8 -1 0
BITMAP
6200
D200
F400
FB00
FF80
7780
1780
2300
ENDCHAR

STARTCHAR char38
ENCODING 38
SWIDTH 51 0
DWIDTH 6 0
BBX 6 7 0 0
BITMAP
F0
D0
E0
E0
BC
FC
78
ENDCHAR

STARTCHAR char39
ENCODING 39
SWIDTH 17 0
DWIDTH 2 0
BBX 2 2 0 5
BITMAP
80
80
ENDCHAR

STARTCHAR char40
ENCODING 40
SWIDTH 25 0
DWIDTH 3 0
BBX 3 9 0 -1
BITMAP
20
40
C0
C0
C0
C0
C0
40
40
ENDCHAR

STARTCHAR char41
ENCODING 41
SWIDTH 25 0
DWIDTH 3 0
BBX 3 9 0 -1
BITMAP
80
C0
60
60
60
60
60
40
80
ENDCHAR

STARTCHAR char42
ENCODING 42
SWIDTH 25 0
DWIDTH 3 0
BBX 4 2 0 5
BITMAP
F0
70
ENDCHAR

STARTCHAR char43
ENCODING 43
SWIDTH 43 0
DWIDTH 5 0
BBX 5 4 0 1
BITMAP
60
F8
60
60
ENDCHAR

STARTCHAR char44
ENCODING 44
SWIDTH 17 0
DWIDTH 2 0
BBX 2 3 0 -2
BITMAP
C0
C0
80
ENDCHAR

STARTCHAR char45
ENCODING 45
SWIDTH 25 0
DWIDTH 3 0
BBX 2 1 0 2
BITMAP
C0
ENDCHAR

STARTCHAR char46
ENCODING 46
SWIDTH 17 0
DWIDTH 2 0
BBX 2 1 0 0
BITMAP
C0
ENDCHAR

STARTCHAR char47
ENCODING 47
SWIDTH 25 0
DWIDTH 3 0
BBX 3 7 0 0
BITMAP
20
20
40
40
40
80
80
ENDCHAR

STARTCHAR char48
ENCODING 48
SWIDTH 43 0
DWIDTH 5 0
BBX 5 7 0 0
BITMAP
70
D8
D8
D8
98
98
70
ENDCHAR

STARTCHAR char49
ENCODING 49
SWIDTH 43 0
DWIDTH 5 0
BBX 3 7 1 0
BITMAP
60
E0
60
60
60
60
60
ENDCHAR

STARTCHAR char50
ENCODING 50
SWIDTH 43 0
DWIDTH 5 0
BBX 5 7 0 0
BITMAP
70
98
18
30
40
40
F0
ENDCHAR

STARTCHAR char51
ENCODING 51
SWIDTH 43 0
DWIDTH 5 0
BBX 6 7 -1 0
BITMAP
7C
CC
08
10
08
C8
7C
ENDCHAR

STARTCHAR char52
ENCODING 52
SWIDTH 43 0
DWIDTH 5 0
BBX 4 7 0 0
BITMAP
30
70
70
70
F0
10
10
ENDCHAR

STARTCHAR char53
ENCODING 53
SWIDTH 43 0
DWIDTH 5 0
BBX 5 7 0 0
BITMAP
78
40
F0
58
18
98
70
ENDCHAR

STARTCHAR char54
ENCODING 54
SWIDTH 43 0
DWIDTH 5 0
BBX 5 7 0 0
BITMAP
70
80
F0
98
D8
D8
70
ENDCHAR

STARTCHAR char55
ENCODING 55
SWIDTH 43 0
DWIDTH 5 0
BBX 4 7 0 0
BITMAP
F0
10
20
20
40
40
40
ENDCHAR

STARTCHAR char56
ENCODING 56
SWIDTH 43 0
DWIDTH 5 0
BBX 5 8 0 0
BITMAP
F8
D8
D8
D0
60
D0
D0
70
ENDCHAR

STARTCHAR char57
ENCODING 57
SWIDTH 43 0
DWIDTH 5 0
BBX 5 8 0 0
BITMAP
60
D0
D8
D8
D8
68
98
70
ENDCHAR

STARTCHAR char58
ENCODING 58
SWIDTH 17 0
DWIDTH 2 0
BBX 2 5 0 0
BITMAP
C0
00
00
00
C0
ENDCHAR

STARTCHAR char59
ENCODING 59
SWIDTH 17 0
DWIDTH 2 0
BBX 2 7 0 -2
BITMAP
C0
00
00
00
40
C0
40
ENDCHAR

STARTCHAR char60
ENCODING 60
SWIDTH 51 0
DWIDTH 6 0
BBX 5 5 0 0
BITMAP
18
60
C0
30
08
ENDCHAR

STARTCHAR char61
ENCODING 61
SWIDTH 43 0
DWIDTH 5 0
BBX 5 2 0 2
BITMAP
F8
F8
ENDCHAR

STARTCHAR char62
ENCODING 62
SWIDTH 51 0
DWIDTH 6 0
BBX 6 5 0 0
BITMAP
60
10
0C
30
C0
ENDCHAR

STARTCHAR char63
ENCODING 63
SWIDTH 43 0
DWIDTH 5 0
BBX 5 7 0 0
BITMAP
70
58
18
60
60
00
20
ENDCHAR

STARTCHAR char64
ENCODING 64
SWIDTH 7 0
DWIDTH 11 0
BBX 9 8 1 0
BITMAP
1C00
2200
7B00
E580
E500
ED00
7E00
3C00
ENDCHAR

STARTCHAR char65
ENCODING 65
SWIDTH 51 0
DWIDTH 6 0
BBX 5 7 0 0
BITMAP
60
50
50
50
F0
88
88
ENDCHAR

STARTCHAR char66
ENCODING 66
SWIDTH 43 0
DWIDTH 5 0
BBX 5 7 0 0
BITMAP
F8
D8
D8
F0
D8
D8
F8
ENDCHAR

STARTCHAR char67
ENCODING 67
SWIDTH 43 0
DWIDTH 5 0
BBX 5 7 0 0
BITMAP
70
88
C0
C0
C8
88
70
ENDCHAR

STARTCHAR char68
ENCODING 68
SWIDTH 51 0
DWIDTH 6 0
BBX 5 7 0 0
BITMAP
F0
D8
D8
D8
C8
C8
F0
ENDCHAR

STARTCHAR char69
ENCODING 69
SWIDTH 43 0
DWIDTH 5 0
BBX 4 7 0 0
BITMAP
F0
80
80
F0
C0
C0
F0
ENDCHAR

STARTCHAR char70
ENCODING 70
SWIDTH 43 0
DWIDTH 5 0
BBX 4 7 0 0
BITMAP
F0
80
80
F0
C0
C0
C0
ENDCHAR

STARTCHAR char71
ENCODING 71
SWIDTH 51 0
DWIDTH 6 0
BBX 5 7 0 0
BITMAP
70
88
C0
F8
D8
C8
78
ENDCHAR

STARTCHAR char72
ENCODING 72
SWIDTH 51 0
DWIDTH 6 0
BBX 5 7 0 0
BITMAP
98
98
98
F8
D8
D8
D8
ENDCHAR

STARTCHAR char73
ENCODING 73
SWIDTH 17 0
DWIDTH 2 0
BBX 2 7 0 0
BITMAP
C0
C0
C0
C0
C0
C0
C0
ENDCHAR

STARTCHAR char74
ENCODING 74
SWIDTH 34 0
DWIDTH 4 0
BBX 5 7 -1 0
BITMAP
10
18
18
18
18
D8
70
ENDCHAR

STARTCHAR char75
ENCODING 75
SWIDTH 43 0
DWIDTH 5 0
BBX 5 7 0 0
BITMAP
88
90
A0
E0
D0
D0
C8
ENDCHAR

STARTCHAR char76
ENCODING 76
SWIDTH 43 0
DWIDTH 5 0
BBX 4 7 0 0
BITMAP
C0
C0
C0
C0
C0
C0
F0
ENDCHAR

STARTCHAR char77
ENCODING 77
SWIDTH 60 0
DWIDTH 7 0
BBX 7 7 0 0
BITMAP
C6
CE
AA
AA
AE
B6
D2
ENDCHAR

STARTCHAR char78
ENCODING 78
SWIDTH 51 0
DWIDTH 6 0
BBX 5 7 0 0
BITMAP
D8
F8
F8
F8
F8
F8
D8
ENDCHAR

STARTCHAR char79
ENCODING 79
SWIDTH 51 0
DWIDTH 6 0
BBX 5 7 0 0
BITMAP
70
88
D8
D8
98
88
70
ENDCHAR

STARTCHAR char80
ENCODING 80
SWIDTH 43 0
DWIDTH 5 0
BBX 5 7 0 0
BITMAP
F0
D8
D8
F0
80
80
80
ENDCHAR

STARTCHAR char81
ENCODING 81
SWIDTH 51 0
DWIDTH 6 0
BBX 5 7 0 0
BITMAP
70
88
D8
D8
D8
D8
78
ENDCHAR

STARTCHAR char82
ENCODING 82
SWIDTH 43 0
DWIDTH 5 0
BBX 5 7 0 0
BITMAP
F8
D8
D8
F0
98
98
98
ENDCHAR

STARTCHAR char83
ENCODING 83
SWIDTH 43 0
DWIDTH 5 0
BBX 5 7 0 0
BITMAP
70
D8
C0
30
18
98
70
ENDCHAR

STARTCHAR char84
ENCODING 84
SWIDTH 43 0
DWIDTH 5 0
BBX 3 7 0 0
BITMAP
E0
60
60
60
60
60
60
ENDCHAR

STARTCHAR char85
ENCODING 85
SWIDTH 43 0
DWIDTH 5 0
BBX 5 7 0 0
BITMAP
D8
D8
D8
D8
D8
D8
70
ENDCHAR

STARTCHAR char86
ENCODING 86
SWIDTH 43 0
DWIDTH 5 0
BBX 5 7 0 0
BITMAP
C8
88
90
50
50
60
20
ENDCHAR

STARTCHAR char87
ENCODING 87
SWIDTH 68 0
DWIDTH 8 0
BBX 7 7 0 0
BITMAP
92
AA
AA
AA
6C
6C
44
ENDCHAR

STARTCHAR char88
ENCODING 88
SWIDTH 43 0
DWIDTH 5 0
BBX 5 7 0 0
BITMAP
90
50
60
20
50
90
88
ENDCHAR

STARTCHAR char89
ENCODING 89
SWIDTH 43 0
DWIDTH 5 0
BBX 5 7 0 0
BITMAP
90
90
B0
60
60
60
20
ENDCHAR

STARTCHAR char90
ENCODING 90
SWIDTH 43 0
DWIDTH 5 0
BBX 4 7 0 0
BITMAP
F0
10
20
60
40
80
F0
ENDCHAR

STARTCHAR char91
ENCODING 91
SWIDTH 25 0
DWIDTH 3 0
BBX 3 10 0 -2
BITMAP
E0
C0
C0
C0
C0
C0
C0
C0
C0
E0
ENDCHAR

STARTCHAR char92
ENCODING 92
SWIDTH 25 0
DWIDTH 3 0
BBX 3 8 0 0
BITMAP
80
80
40
40
40
40
20
20
ENDCHAR

STARTCHAR char93
ENCODING 93
SWIDTH 25 0
DWIDTH 3 0
BBX 2 10 0 -2
BITMAP
C0
C0
C0
C0
C0
C0
C0
C0
C0
C0
ENDCHAR

STARTCHAR char94
ENCODING 94
SWIDTH 0 0
DWIDTH 0 0
BBX 4 1 -2 8
BITMAP
60
ENDCHAR

STARTCHAR char95
ENCODING 95
SWIDTH 51 0
DWIDTH 6 0
BBX 6 1 0 -2
BITMAP
FC
ENDCHAR

STARTCHAR char96
ENCODING 96
SWIDTH 0 0
DWIDTH 0 0
BBX 1 1 -1 6
BITMAP
80
ENDCHAR

STARTCHAR char97
ENCODING 97
SWIDTH 34 0
DWIDTH 4 0
BBX 5 5 -1 0
BITMAP
F8
18
68
D8
F8
ENDCHAR

STARTCHAR char98
ENCODING 98
SWIDTH 43 0
DWIDTH 5 0
BBX 5 7 0 0
BITMAP
80
80
F8
D8
D8
D8
F0
ENDCHAR

STARTCHAR char99
ENCODING 99
SWIDTH 34 0
DWIDTH 4 0
BBX 4 5 0 0
BITMAP
F0
80
C0
90
60
ENDCHAR

STARTCHAR char100
ENCODING 100
SWIDTH 43 0
DWIDTH 5 0
BBX 4 7 0 0
BITMAP
10
10
F0
D0
F0
D0
70
ENDCHAR

STARTCHAR char101
ENCODING 101
SWIDTH 34 0
DWIDTH 4 0
BBX 4 5 0 0
BITMAP
F0
90
F0
D0
60
ENDCHAR

STARTCHAR char102
ENCODING 102
SWIDTH 17 0
DWIDTH 2 0
BBX 2 7 0 0
BITMAP
C0
C0
C0
C0
C0
C0
C0
ENDCHAR

STARTCHAR char103
ENCODING 103
SWIDTH 43 0
DWIDTH 5 0
BBX 4 7 0 -2
BITMAP
70
D0
D0
D0
70
10
60
ENDCHAR

STARTCHAR char104
ENCODING 104
SWIDTH 43 0
DWIDTH 5 0
BBX 4 7 0 0
BITMAP
80
80
F0
F0
F0
F0
F0
ENDCHAR

STARTCHAR char105
ENCODING 105
SWIDTH 17 0
DWIDTH 2 0
BBX 2 7 0 0
BITMAP
C0
00
C0
C0
C0
C0
C0
ENDCHAR

STARTCHAR char106
ENCODING 106
SWIDTH 17 0
DWIDTH 2 0
BBX 2 9 0 -2
BITMAP
C0
00
C0
C0
C0
C0
C0
C0
C0
ENDCHAR

STARTCHAR char107
ENCODING 107
SWIDTH 34 0
DWIDTH 4 0
BBX 4 7 0 0
BITMAP
C0
C0
B0
E0
E0
D0
D0
ENDCHAR

STARTCHAR char108
ENCODING 108
SWIDTH 17 0
DWIDTH 2 0
BBX 2 7 0 0
BITMAP
C0
C0
C0
C0
C0
C0
C0
ENDCHAR

STARTCHAR char109
ENCODING 109
SWIDTH 60 0
DWIDTH 7 0
BBX 7 5 0 0
BITMAP
FE
F6
F6
F6
F6
ENDCHAR

STARTCHAR char110
ENCODING 110
SWIDTH 43 0
DWIDTH 5 0
BBX 4 5 0 0
BITMAP
F0
F0
F0
F0
F0
ENDCHAR

STARTCHAR char111
ENCODING 111
SWIDTH 34 0
DWIDTH 4 0
BBX 5 5 -1 0
BITMAP
70
D8
D8
C8
70
ENDCHAR

STARTCHAR char112
ENCODING 112
SWIDTH 43 0
DWIDTH 5 0
BBX 5 7 0 -2
BITMAP
F8
D8
D8
D8
F0
C0
C0
ENDCHAR

STARTCHAR char113
ENCODING 113
SWIDTH 43 0
DWIDTH 5 0
BBX 4 7 0 -2
BITMAP
F0
D0
F0
90
70
10
10
ENDCHAR

STARTCHAR char114
ENCODING 114
SWIDTH 25 0
DWIDTH 3 0
BBX 3 5 0 0
BITMAP
C0
80
C0
C0
C0
ENDCHAR

STARTCHAR char115
ENCODING 115
SWIDTH 34 0
DWIDTH 4 0
BBX 5 5 -1 0
BITMAP
78
60
18
D8
78
ENDCHAR

STARTCHAR char116
ENCODING 116
SWIDTH 17 0
DWIDTH 2 0
BBX 2 7 0 0
BITMAP
80
80
C0
C0
C0
C0
C0
ENDCHAR

STARTCHAR char117
ENCODING 117
SWIDTH 43 0
DWIDTH 5 0
BBX 4 5 0 0
BITMAP
D0
D0
D0
D0
F0
ENDCHAR

STARTCHAR char118
ENCODING 118
SWIDTH 34 0
DWIDTH 4 0
BBX 4 5 0 0
BITMAP
90
90
60
60
60
ENDCHAR

STARTCHAR char119
ENCODING 119
SWIDTH 51 0
DWIDTH 6 0
BBX 6 5 0 0
BITMAP
F4
B4
B8
B8
48
ENDCHAR

STARTCHAR char120
ENCODING 120
SWIDTH 34 0
DWIDTH 4 0
BBX 4 5 0 0
BITMAP
90
60
60
E0
90
ENDCHAR

STARTCHAR char121
ENCODING 121
SWIDTH 34 0
DWIDTH 4 0
BBX 4 7 0 -2
BITMAP
90
90
60
60
60
40
C0
ENDCHAR

STARTCHAR char122
ENCODING 122
SWIDTH 34 0
DWIDTH 4 0
BBX 3 5 0 0
BITMAP
E0
40
40
80
E0
ENDCHAR

STARTCHAR char123
ENCODING 123
SWIDTH 34 0
DWIDTH 4 0
BBX 3 9 0 -2
BITMAP
60
40
60
60
80
40
40
60
60
ENDCHAR

STARTCHAR char124
ENCODING 124
SWIDTH 25 0
DWIDTH 3 0
BBX 2 8 0 0
BITMAP
C0
C0
C0
C0
C0
C0
C0
C0
ENDCHAR

STARTCHAR char125
ENCODING 125
SWIDTH 34 0
DWIDTH 4 0
BBX 3 9 0 -2
BITMAP
C0
40
60
60
20
60
60
60
E0
ENDCHAR

STARTCHAR char126
ENCODING 126
SWIDTH 0 0
DWIDTH 0 0
BBX 4 1 -2 8
BITMAP
E0
ENDCHAR

STARTCHAR char128
ENCODING 128
SWIDTH 51 0
DWIDTH 6 0
BBX 6 7 -1 0
BITMAP
38
64
78
70
64
64
38
ENDCHAR

STARTCHAR char130
ENCODING 130
SWIDTH 17 0
DWIDTH 2 0
BBX 2 3 0 -2
BITMAP
C0
C0
80
ENDCHAR

STARTCHAR char131
ENCODING 131
SWIDTH 0 0
DWIDTH 0 0
BBX 4 1 -2 8
BITMAP
60
ENDCHAR

STARTCHAR char132
ENCODING 132
SWIDTH 34 0
DWIDTH 4 0
BBX 4 3 0 -2
BITMAP
F0
F0
A0
ENDCHAR

STARTCHAR char133
ENCODING 133
SWIDTH 7 0
DWIDTH 11 0
BBX 9 1 1 0
BITMAP
D980
ENDCHAR

STARTCHAR char134
ENCODING 134
SWIDTH 43 0
DWIDTH 5 0
BBX 4 9 0 -2
BITMAP
60
60
F0
60
60
60
60
60
60
ENDCHAR

STARTCHAR char135
ENCODING 135
SWIDTH 86 0
DWIDTH 10 0
BBX 0 0 0 0
BITMAP
ENDCHAR

STARTCHAR char136
ENCODING 136
SWIDTH 0 0
DWIDTH 0 0
BBX 2 1 -1 6
BITMAP
C0
ENDCHAR

STARTCHAR char137
ENCODING 137
SWIDTH 86 0
DWIDTH 10 0
BBX 0 0 0 0
BITMAP
ENDCHAR

STARTCHAR char139
ENCODING 139
SWIDTH 34 0
DWIDTH 4 0
BBX 2 4 1 1
BITMAP
40
80
80
40
ENDCHAR

STARTCHAR char140
ENCODING 140
SWIDTH 68 0
DWIDTH 8 0
BBX 8 7 -1 0
BITMAP
78
C8
C8
CF
CC
4C
37
ENDCHAR

STARTCHAR char142
ENCODING 142
SWIDTH 86 0
DWIDTH 10 0
BBX 0 0 0 0
BITMAP
ENDCHAR

STARTCHAR char144
ENCODING 144
SWIDTH 86 0
DWIDTH 10 0
BBX 0 0 0 0
BITMAP
ENDCHAR

STARTCHAR char145
ENCODING 145
SWIDTH 17 0
DWIDTH 2 0
BBX 2 2 0 5
BITMAP
C0
80
ENDCHAR

STARTCHAR char146
ENCODING 146
SWIDTH 17 0
DWIDTH 2 0
BBX 2 2 0 5
BITMAP
C0
C0
ENDCHAR

STARTCHAR char147
ENCODING 147
SWIDTH 34 0
DWIDTH 4 0
BBX 4 2 0 5
BITMAP
F0
F0
ENDCHAR

STARTCHAR char148
ENCODING 148
SWIDTH 34 0
DWIDTH 4 0
BBX 4 2 0 5
BITMAP
F0
F0
ENDCHAR

STARTCHAR char149
ENCODING 149
SWIDTH 34 0
DWIDTH 4 0
BBX 3 3 0 2
BITMAP
E0
E0
E0
ENDCHAR

STARTCHAR char150
ENCODING 150
SWIDTH 43 0
DWIDTH 5 0
BBX 4 1 0 2
BITMAP
F0
ENDCHAR

STARTCHAR char151
ENCODING 151
SWIDTH 43 0
DWIDTH 5 0
BBX 5 1 0 3
BITMAP
F8
ENDCHAR

STARTCHAR char152
ENCODING 152
SWIDTH 0 0
DWIDTH 0 0
BBX 4 1 -2 6
BITMAP
70
ENDCHAR

STARTCHAR char153
ENCODING 153
SWIDTH 77 0
DWIDTH 9 0
BBX 9 4 0 3
BITMAP
F900
4B00
CF00
FF80
ENDCHAR

STARTCHAR char154
ENCODING 154
SWIDTH 86 0
DWIDTH 10 0
BBX 0 0 0 0
BITMAP
ENDCHAR

STARTCHAR char155
ENCODING 155
SWIDTH 34 0
DWIDTH 4 0
BBX 2 4 1 1
BITMAP
80
80
C0
80
ENDCHAR

STARTCHAR char156
ENCODING 156
SWIDTH 60 0
DWIDTH 7 0
BBX 7 6 -1 0
BITMAP
10
7E
DA
DE
DA
76
ENDCHAR

STARTCHAR char159
ENCODING 159
SWIDTH 43 0
DWIDTH 5 0
BBX 5 9 0 0
BITMAP
E0
00
90
90
B0
60
60
60
20
ENDCHAR

STARTCHAR char160
ENCODING 160
SWIDTH 25 0
DWIDTH 3 0
BBX 0 0 0 0
BITMAP
ENDCHAR

STARTCHAR char161
ENCODING 161
SWIDTH 17 0
DWIDTH 2 0
BBX 2 7 0 0
BITMAP
80
C0
C0
C0
C0
C0
80
ENDCHAR

STARTCHAR char162
ENCODING 162
SWIDTH 34 0
DWIDTH 4 0
BBX 4 7 0 -1
BITMAP
60
F0
E0
E0
D0
F0
60
ENDCHAR

STARTCHAR char163
ENCODING 163
SWIDTH 43 0
DWIDTH 5 0
BBX 5 7 0 0
BITMAP
70
C8
80
E0
60
40
F8
ENDCHAR

STARTCHAR char164
ENCODING 164
SWIDTH 0 0
DWIDTH 0 0
BBX 3 1 -1 8
BITMAP
40
ENDCHAR

STARTCHAR char165
ENCODING 165
SWIDTH 0 0
DWIDTH 0 0
BBX 4 1 -2 8
BITMAP
60
ENDCHAR

STARTCHAR char166
ENCODING 166
SWIDTH 86 0
DWIDTH 10 0
BBX 0 0 0 0
BITMAP
ENDCHAR

STARTCHAR char167
ENCODING 167
SWIDTH 43 0
DWIDTH 5 0
BBX 5 9 0 -2
BITMAP
70
40
F0
D8
D0
70
18
D8
78
ENDCHAR

STARTCHAR char168
ENCODING 168
SWIDTH 0 0
DWIDTH 0 0
BBX 4 1 -2 6
BITMAP
F0
ENDCHAR

STARTCHAR char169
ENCODING 169
SWIDTH 68 0
DWIDTH 8 0
BBX 9 7 -1 0
BITMAP
1C00
6F00
7300
F180
F180
7F00
1C00
ENDCHAR

STARTCHAR char170
ENCODING 170
SWIDTH 0 0
DWIDTH 0 0
BBX 4 1 -2 8
BITMAP
F0
ENDCHAR

STARTCHAR char171
ENCODING 171
SWIDTH 34 0
DWIDTH 4 0
BBX 3 4 0 1
BITMAP
60
A0
A0
60
ENDCHAR

STARTCHAR char172
ENCODING 172
SWIDTH 60 0
DWIDTH 7 0
BBX 7 3 0 0
BITMAP
FE
06
06
ENDCHAR

STARTCHAR char173
ENCODING 173
SWIDTH 86 0
DWIDTH 10 0
BBX 0 0 0 0
BITMAP
ENDCHAR

STARTCHAR char174
ENCODING 174
SWIDTH 68 0
DWIDTH 8 0
BBX 9 7 -1 0
BITMAP
1C00
3F00
5F00
D980
DD80
7F00
1C00
ENDCHAR

STARTCHAR char175
ENCODING 175
SWIDTH 86 0
DWIDTH 10 0
BBX 0 0 0 0
BITMAP
ENDCHAR

STARTCHAR char176
ENCODING 176
SWIDTH 25 0
DWIDTH 3 0
BBX 5 3 -1 4
BITMAP
60
D8
70
ENDCHAR

STARTCHAR char177
ENCODING 177
SWIDTH 51 0
DWIDTH 6 0
BBX 5 7 0 0
BITMAP
60
60
60
F8
60
60
F8
ENDCHAR

STARTCHAR char178
ENCODING 178
SWIDTH 86 0
DWIDTH 10 0
BBX 0 0 0 0
BITMAP
ENDCHAR

STARTCHAR char179
ENCODING 179
SWIDTH 86 0
DWIDTH 10 0
BBX 0 0 0 0
BITMAP
ENDCHAR

STARTCHAR char180
ENCODING 180
SWIDTH 0 0
DWIDTH 0 0
BBX 2 1 0 6
BITMAP
C0
ENDCHAR

STARTCHAR char181
ENCODING 181
SWIDTH 86 0
DWIDTH 10 0
BBX 0 0 0 0
BITMAP
ENDCHAR

STARTCHAR char182
ENCODING 182
SWIDTH 60 0
DWIDTH 7 0
BBX 5 10 1 -2
BITMAP
78
F8
F8
F8
78
78
78
78
78
78
ENDCHAR

STARTCHAR char183
ENCODING 183
SWIDTH 17 0
DWIDTH 2 0
BBX 2 1 0 3
BITMAP
C0
ENDCHAR

STARTCHAR char184
ENCODING 184
SWIDTH 0 0
DWIDTH 0 0
BBX 2 2 -1 -2
BITMAP
C0
C0
ENDCHAR

STARTCHAR char186
ENCODING 186
SWIDTH 0 0
DWIDTH 0 0
BBX 4 1 -2 8
BITMAP
E0
ENDCHAR

STARTCHAR char187
ENCODING 187
SWIDTH 34 0
DWIDTH 4 0
BBX 4 4 0 1
BITMAP
A0
60
60
A0
ENDCHAR

STARTCHAR char188
ENCODING 188
SWIDTH 86 0
DWIDTH 10 0
BBX 0 0 0 0
BITMAP
ENDCHAR

STARTCHAR char191
ENCODING 191
SWIDTH 43 0
DWIDTH 5 0
BBX 5 7 -1 0
BITMAP
10
30
30
60
C0
C8
70
ENDCHAR

STARTCHAR char192
ENCODING 192
SWIDTH 51 0
DWIDTH 6 0
BBX 5 9 0 0
BITMAP
20
00
60
50
50
50
F0
88
88
ENDCHAR

STARTCHAR char193
ENCODING 193
SWIDTH 51 0
DWIDTH 6 0
BBX 5 9 0 0
BITMAP
20
00
60
50
50
50
F0
88
88
ENDCHAR

STARTCHAR char194
ENCODING 194
SWIDTH 51 0
DWIDTH 6 0
BBX 5 9 0 0
BITMAP
70
00
60
50
50
50
F0
88
88
ENDCHAR

STARTCHAR char195
ENCODING 195
SWIDTH 51 0
DWIDTH 6 0
BBX 5 9 0 0
BITMAP
70
00
60
50
50
50
F0
88
88
ENDCHAR

STARTCHAR char196
ENCODING 196
SWIDTH 51 0
DWIDTH 6 0
BBX 5 9 0 0
BITMAP
70
00
20
20
60
70
70
C8
88
ENDCHAR

STARTCHAR char197
ENCODING 197
SWIDTH 51 0
DWIDTH 6 0
BBX 5 10 0 0
BITMAP
70
70
70
20
20
60
50
70
88
88
ENDCHAR

STARTCHAR char198
ENCODING 198
SWIDTH 68 0
DWIDTH 8 0
BBX 8 7 0 0
BITMAP
38
38
58
5E
78
88
8F
ENDCHAR

STARTCHAR char199
ENCODING 199
SWIDTH 43 0
DWIDTH 5 0
BBX 5 9 0 -2
BITMAP
70
88
C0
C0
C8
88
70
60
20
ENDCHAR

STARTCHAR char200
ENCODING 200
SWIDTH 43 0
DWIDTH 5 0
BBX 5 9 0 0
BITMAP
20
00
F0
80
80
F0
C0
C0
F8
ENDCHAR

STARTCHAR char201
ENCODING 201
SWIDTH 43 0
DWIDTH 5 0
BBX 4 9 0 0
BITMAP
20
00
F0
80
80
F0
C0
C0
F0
ENDCHAR

STARTCHAR char202
ENCODING 202
SWIDTH 43 0
DWIDTH 5 0
BBX 4 9 0 0
BITMAP
F0
00
F0
80
80
F0
C0
C0
F0
ENDCHAR

STARTCHAR char203
ENCODING 203
SWIDTH 43 0
DWIDTH 5 0
BBX 4 9 0 0
BITMAP
F0
00
F0
80
80
F0
C0
C0
F0
ENDCHAR

STARTCHAR char204
ENCODING 204
SWIDTH 17 0
DWIDTH 2 0
BBX 3 9 -1 0
BITMAP
60
00
60
60
60
60
60
60
60
ENDCHAR

STARTCHAR char205
ENCODING 205
SWIDTH 17 0
DWIDTH 2 0
BBX 3 9 0 0
BITMAP
40
00
C0
C0
C0
C0
C0
C0
C0
ENDCHAR

STARTCHAR char206
ENCODING 206
SWIDTH 17 0
DWIDTH 2 0
BBX 4 9 -1 0
BITMAP
F0
00
60
60
60
60
60
60
60
ENDCHAR

STARTCHAR char207
ENCODING 207
SWIDTH 17 0
DWIDTH 2 0
BBX 3 9 -1 0
BITMAP
E0
00
60
60
60
60
60
60
60
ENDCHAR

STARTCHAR char208
ENCODING 208
SWIDTH 86 0
DWIDTH 10 0
BBX 0 0 0 0
BITMAP
ENDCHAR

STARTCHAR char209
ENCODING 209
SWIDTH 51 0
DWIDTH 6 0
BBX 5 9 0 0
BITMAP
70
00
D8
F8
F8
F8
F8
F8
D8
ENDCHAR

STARTCHAR char210
ENCODING 210
SWIDTH 51 0
DWIDTH 6 0
BBX 5 9 0 0
BITMAP
20
00
70
88
D8
D8
98
88
70
ENDCHAR

STARTCHAR char211
ENCODING 211
SWIDTH 51 0
DWIDTH 6 0
BBX 5 9 0 0
BITMAP
20
00
70
88
D8
D8
98
88
70
ENDCHAR

STARTCHAR char212
ENCODING 212
SWIDTH 51 0
DWIDTH 6 0
BBX 5 9 0 0
BITMAP
70
00
70
88
D8
D8
98
88
70
ENDCHAR

STARTCHAR char213
ENCODING 213
SWIDTH 51 0
DWIDTH 6 0
BBX 5 9 0 0
BITMAP
70
00
70
88
D8
D8
98
88
70
ENDCHAR

STARTCHAR char214
ENCODING 214
SWIDTH 51 0
DWIDTH 6 0
BBX 5 9 0 0
BITMAP
70
00
70
98
D8
D8
D8
88
70
ENDCHAR

STARTCHAR char215
ENCODING 215
SWIDTH 86 0
DWIDTH 10 0
BBX 0 0 0 0
BITMAP
ENDCHAR

STARTCHAR char216
ENCODING 216
SWIDTH 51 0
DWIDTH 6 0
BBX 5 8 0 0
BITMAP
08
78
98
A8
F8
F8
88
F0
ENDCHAR

STARTCHAR char217
ENCODING 217
SWIDTH 43 0
DWIDTH 5 0
BBX 5 9 0 0
BITMAP
20
00
D8
D8
D8
D8
D8
D8
70
ENDCHAR

STARTCHAR char218
ENCODING 218
SWIDTH 43 0
DWIDTH 5 0
BBX 5 9 0 0
BITMAP
20
00
D8
D8
D8
D8
D8
D8
70
ENDCHAR

STARTCHAR char219
ENCODING 219
SWIDTH 43 0
DWIDTH 5 0
BBX 5 9 0 0
BITMAP
70
00
D8
D8
D8
D8
D8
D8
70
ENDCHAR

STARTCHAR char220
ENCODING 220
SWIDTH 43 0
DWIDTH 5 0
BBX 5 9 0 0
BITMAP
70
00
D8
D8
D8
D8
D8
D8
70
ENDCHAR

STARTCHAR char221
ENCODING 221
SWIDTH 86 0
DWIDTH 10 0
BBX 0 0 0 0
BITMAP
ENDCHAR

STARTCHAR char223
ENCODING 223
SWIDTH 43 0
DWIDTH 5 0
BBX 4 7 0 0
BITMAP
F0
B0
A0
F0
F0
F0
F0
ENDCHAR

STARTCHAR char224
ENCODING 224
SWIDTH 34 0
DWIDTH 4 0
BBX 5 7 -1 0
BITMAP
20
00
F8
18
68
D8
F8
ENDCHAR

STARTCHAR char225
ENCODING 225
SWIDTH 34 0
DWIDTH 4 0
BBX 5 7 -1 0
BITMAP
10
00
F8
18
68
D8
F8
ENDCHAR

STARTCHAR char226
ENCODING 226
SWIDTH 34 0
DWIDTH 4 0
BBX 5 7 -1 0
BITMAP
70
00
F8
18
68
D8
F8
ENDCHAR

STARTCHAR char227
ENCODING 227
SWIDTH 34 0
DWIDTH 4 0
BBX 5 7 -1 0
BITMAP
F8
00
F8
18
68
D8
F8
ENDCHAR

STARTCHAR char228
ENCODING 228
SWIDTH 34 0
DWIDTH 4 0
BBX 5 7 -1 0
BITMAP
78
00
F8
18
68
98
F8
ENDCHAR

STARTCHAR char229
ENCODING 229
SWIDTH 34 0
DWIDTH 4 0
BBX 4 8 0 0
BITMAP
E0
E0
00
F0
30
D0
F0
F0
ENDCHAR

STARTCHAR char230
ENCODING 230
SWIDTH 60 0
DWIDTH 7 0
BBX 7 5 -1 0
BITMAP
7E
1A
7E
DA
F4
ENDCHAR

STARTCHAR char231
ENCODING 231
SWIDTH 34 0
DWIDTH 4 0
BBX 4 7 0 -2
BITMAP
70
80
C0
90
60
60
60
ENDCHAR

STARTCHAR char232
ENCODING 232
SWIDTH 34 0
DWIDTH 4 0
BBX 4 7 0 0
BITMAP
40
00
F0
90
F0
D0
60
ENDCHAR

STARTCHAR char233
ENCODING 233
SWIDTH 34 0
DWIDTH 4 0
BBX 4 7 0 0
BITMAP
30
00
F0
90
F0
D0
60
ENDCHAR

STARTCHAR char234
ENCODING 234
SWIDTH 34 0
DWIDTH 4 0
BBX 4 7 0 0
BITMAP
60
00
F0
90
F0
D0
60
ENDCHAR

STARTCHAR char235
ENCODING 235
SWIDTH 34 0
DWIDTH 4 0
BBX 5 7 0 0
BITMAP
B0
00
F0
90
F0
D8
60
ENDCHAR

STARTCHAR char236
ENCODING 236
SWIDTH 17 0
DWIDTH 2 0
BBX 3 7 -1 0
BITMAP
60
00
60
60
60
60
60
ENDCHAR

STARTCHAR char237
ENCODING 237
SWIDTH 17 0
DWIDTH 2 0
BBX 3 7 0 0
BITMAP
60
00
C0
C0
C0
C0
C0
ENDCHAR

STARTCHAR char238
ENCODING 238
SWIDTH 17 0
DWIDTH 2 0
BBX 3 7 -1 0
BITMAP
60
00
60
60
60
60
60
ENDCHAR

STARTCHAR char239
ENCODING 239
SWIDTH 17 0
DWIDTH 2 0
BBX 3 7 -1 0
BITMAP
E0
00
60
60
60
60
60
ENDCHAR

STARTCHAR char241
ENCODING 241
SWIDTH 43 0
DWIDTH 5 0
BBX 4 7 0 0
BITMAP
F0
00
F0
F0
F0
F0
F0
ENDCHAR

STARTCHAR char242
ENCODING 242
SWIDTH 34 0
DWIDTH 4 0
BBX 5 7 -1 0
BITMAP
20
00
70
D8
D8
C8
70
ENDCHAR

STARTCHAR char243
ENCODING 243
SWIDTH 34 0
DWIDTH 4 0
BBX 5 7 -1 0
BITMAP
10
00
70
D8
D8
C8
70
ENDCHAR

STARTCHAR char244
ENCODING 244
SWIDTH 34 0
DWIDTH 4 0
BBX 5 7 -1 0
BITMAP
70
00
70
D8
D8
C8
70
ENDCHAR

STARTCHAR char245
ENCODING 245
SWIDTH 34 0
DWIDTH 4 0
BBX 5 7 -1 0
BITMAP
78
00
70
D8
D8
C8
70
ENDCHAR

STARTCHAR char246
ENCODING 246
SWIDTH 34 0
DWIDTH 4 0
BBX 4 7 0 0
BITMAP
60
00
70
F0
F0
D0
60
ENDCHAR

STARTCHAR char247
ENCODING 247
SWIDTH 51 0
DWIDTH 6 0
BBX 5 4 0 1
BITMAP
60
00
F8
60
ENDCHAR

STARTCHAR char248
ENCODING 248
SWIDTH 34 0
DWIDTH 4 0
BBX 5 6 0 0
BITMAP
08
F8
F8
F8
D8
F0
ENDCHAR

STARTCHAR char249
ENCODING 249
SWIDTH 43 0
DWIDTH 5 0
BBX 4 7 0 0
BITMAP
40
00
D0
D0
D0
D0
F0
ENDCHAR

STARTCHAR char250
ENCODING 250
SWIDTH 43 0
DWIDTH 5 0
BBX 4 7 0 0
BITMAP
30
00
D0
D0
D0
D0
F0
ENDCHAR

STARTCHAR char251
ENCODING 251
SWIDTH 43 0
DWIDTH 5 0
BBX 4 7 0 0
BITMAP
60
00
D0
D0
D0
D0
F0
ENDCHAR

STARTCHAR char252
ENCODING 252
SWIDTH 43 0
DWIDTH 5 0
BBX 5 7 0 0
BITMAP
70
00
F0
F0
F0
F0
F8
ENDCHAR

STARTCHAR char255
ENCODING 255
SWIDTH 34 0
DWIDTH 4 0
BBX 4 9 0 -2
BITMAP
F0
00
D0
F0
60
60
60
40
80
ENDCHAR
ENDFONT
